<?xml version="1.0" standalone="no"?>
<!DOCTYPE svg PUBLIC "-//W3C//DTD SVG 20010904//EN"
 "http://www.w3.org/TR/2001/REC-SVG-20010904/DTD/svg10.dtd">
<svg version="1.0" xmlns="http://www.w3.org/2000/svg"
 width="355.000000pt" height="355.000000pt" viewBox="0 0 355.000000 355.000000"
 preserveAspectRatio="xMidYMid meet">
<metadata>
Created by potrace 1.14, written by Peter Selinger 2001-2017
</metadata>
<g transform="translate(0.000000,355.000000) scale(0.100000,-0.100000)"
fill="#000000" stroke="none">
<path d="M530 2947 c0 -8 174 -262 205 -300 8 -9 15 -21 15 -25 0 -5 8 -17 18
-28 9 -10 41 -55 71 -99 30 -44 57 -82 60 -85 3 -3 11 -13 16 -22 25 -42 139
-203 147 -206 4 -2 8 -10 8 -18 0 -8 4 -14 9 -14 5 0 11 -8 15 -17 3 -10 21
-38 39 -63 35 -48 92 -128 194 -277 l63 -91 0 -564 0 -563 388 0 387 0 0 565
1 565 46 65 c26 36 54 75 63 87 8 13 15 25 15 29 -1 3 5 11 13 17 15 13 157
214 157 223 0 3 6 12 13 19 39 44 117 161 112 169 -3 3 -2 4 1 1 4 -2 38 42
77 98 39 56 75 105 81 109 6 4 7 8 3 8 -4 0 1 10 12 22 11 11 18 25 15 30 -3
4 -1 8 4 8 6 0 38 42 73 93 34 50 65 94 68 97 4 3 23 30 43 60 21 30 45 65 54
77 9 12 14 26 11 30 -5 8 -914 10 -920 2 -40 -51 -120 -175 -120 -185 0 -7 -3
-11 -6 -9 -4 2 -33 -38 -66 -88 -33 -51 -68 -101 -77 -111 -10 -11 -18 -25
-18 -32 0 -6 -7 -17 -15 -24 -12 -10 -20 -8 -42 10 -15 12 -27 25 -25 28 2 4
-8 21 -22 39 -15 18 -26 37 -26 43 0 6 -7 13 -15 16 -8 4 -15 10 -15 14 0 5
-39 61 -86 127 -47 65 -93 130 -102 145 -10 16 -24 28 -32 29 -93 5 -910 2
-910 -4z"/>
</g>
</svg>
